Normalized EMG Linear Envelopes
nRows=43
nColumns=17

endheader
time	        VM	        VL	        RF	       GRA	        TA	   ADDLONG	   SEMIMEM	      BFLH	        GM	        GL	       TFL	   GLUTMAX	   GLUTMED	      PIRI	    OBTINT	        QF	
3.94	  0.321404	  0.333774	  0.045310	  0.493147	  0.672701	  0.000000	  0.673468	  0.733260	  0.000000	  0.248534	  0.000000	  0.352320	  0.197188	  0.161459	  0.052195	  0.065743	
3.9405	  0.324044	  0.337185	  0.045891	  0.494545	  0.669509	  0.000000	  0.675555	  0.735343	  0.000000	  0.249789	  0.000000	  0.353670	  0.197736	  0.161950	  0.052309	  0.065851	
3.941	  0.326705	  0.340604	  0.046483	  0.495912	  0.666237	  0.000000	  0.677597	  0.737346	  0.000000	  0.251061	  0.000000	  0.355031	  0.198289	  0.162446	  0.052432	  0.065966	
3.9415	  0.329386	  0.344030	  0.047085	  0.497246	  0.662887	  0.000000	  0.679593	  0.739268	  0.000000	  0.252352	  0.000000	  0.356403	  0.198847	  0.162947	  0.052564	  0.066089	
3.942	  0.332088	  0.347462	  0.047698	  0.498546	  0.659459	  0.000000	  0.681540	  0.741108	  0.000000	  0.253660	  0.000000	  0.357786	  0.199409	  0.163453	  0.052704	  0.066218	
3.9425	  0.334809	  0.350900	  0.048323	  0.499813	  0.655955	  0.000000	  0.683438	  0.742867	  0.000000	  0.254986	  0.000000	  0.359181	  0.199974	  0.163964	  0.052853	  0.066353	
3.943	  0.337549	  0.354344	  0.048958	  0.501046	  0.652377	  0.000000	  0.685285	  0.744545	  0.000000	  0.256330	  0.000000	  0.360587	  0.200543	  0.164478	  0.053011	  0.066496	
3.9435	  0.340307	  0.357795	  0.049605	  0.502244	  0.648727	  0.000000	  0.687079	  0.746141	  0.000000	  0.257691	  0.000000	  0.362004	  0.201113	  0.164997	  0.053176	  0.066644	
3.944	  0.343082	  0.361251	  0.050264	  0.503408	  0.645006	  0.000000	  0.688820	  0.747656	  0.000000	  0.259071	  0.000000	  0.363432	  0.201685	  0.165519	  0.053350	  0.066799	
3.9445	  0.345874	  0.364714	  0.050934	  0.504535	  0.641215	  0.000000	  0.690506	  0.749090	  0.000000	  0.260469	  0.000000	  0.364871	  0.202258	  0.166044	  0.053532	  0.066959	
3.945	  0.348682	  0.368184	  0.051616	  0.505627	  0.637356	  0.000000	  0.692136	  0.750443	  0.000000	  0.261886	  0.000000	  0.366320	  0.202831	  0.166573	  0.053721	  0.067125	
3.9455	  0.351504	  0.371660	  0.052310	  0.506682	  0.633430	  0.000000	  0.693710	  0.751715	  0.000000	  0.263320	  0.000000	  0.367780	  0.203404	  0.167103	  0.053918	  0.067297	
3.946	  0.354339	  0.375143	  0.053016	  0.507701	  0.629437	  0.000000	  0.695226	  0.752906	  0.000000	  0.264772	  0.000000	  0.369250	  0.203977	  0.167636	  0.054122	  0.067474	
3.9465	  0.357187	  0.378632	  0.053735	  0.508683	  0.625378	  0.000000	  0.696685	  0.754015	  0.000000	  0.266243	  0.000000	  0.370730	  0.204549	  0.168171	  0.054334	  0.067656	
3.947	  0.360046	  0.382128	  0.054465	  0.509628	  0.621255	  0.000000	  0.698087	  0.755043	  0.000000	  0.267732	  0.000000	  0.372221	  0.205121	  0.168707	  0.054552	  0.067842	
3.9475	  0.362914	  0.385630	  0.055207	  0.510536	  0.617067	  0.000000	  0.699431	  0.755993	  0.000000	  0.269238	  0.000000	  0.373721	  0.205692	  0.169244	  0.054777	  0.068033	
3.948	  0.365791	  0.389138	  0.055962	  0.511407	  0.612816	  0.000000	  0.700719	  0.756864	  0.000000	  0.270763	  0.000000	  0.375231	  0.206261	  0.169782	  0.055009	  0.068228	
3.9485	  0.368674	  0.392652	  0.056729	  0.512241	  0.608503	  0.000000	  0.701952	  0.757659	  0.000000	  0.272305	  0.000000	  0.376751	  0.206830	  0.170321	  0.055248	  0.068427	
3.949	  0.371563	  0.396172	  0.057509	  0.513039	  0.604128	  0.000000	  0.703129	  0.758379	  0.000000	  0.273865	  0.000000	  0.378280	  0.207396	  0.170860	  0.055492	  0.068630	
3.9495	  0.374456	  0.399697	  0.058301	  0.513799	  0.599693	  0.000000	  0.704251	  0.759026	  0.000000	  0.275442	  0.000000	  0.379818	  0.207960	  0.171399	  0.055742	  0.068835	
3.95	  0.377351	  0.403228	  0.059105	  0.514523	  0.595200	  0.000000	  0.705318	  0.759600	  0.000000	  0.277037	  0.000000	  0.381364	  0.208522	  0.171937	  0.055999	  0.069045	
3.9505	  0.380248	  0.406765	  0.059922	  0.515209	  0.590649	  0.000000	  0.706330	  0.760104	  0.000000	  0.278649	  0.000000	  0.382919	  0.209082	  0.172475	  0.056261	  0.069257	
3.951	  0.383144	  0.410308	  0.060752	  0.515858	  0.586042	  0.000000	  0.707288	  0.760540	  0.000000	  0.280279	  0.000000	  0.384480	  0.209639	  0.173011	  0.056528	  0.069472	
3.9515	  0.386040	  0.413857	  0.061595	  0.516468	  0.581380	  0.000000	  0.708190	  0.760910	  0.000000	  0.281927	  0.000000	  0.386050	  0.210194	  0.173547	  0.056801	  0.069689	
3.952	  0.388933	  0.417412	  0.062450	  0.517040	  0.576665	  0.000000	  0.709037	  0.761215	  0.000000	  0.283591	  0.000000	  0.387626	  0.210746	  0.174082	  0.057079	  0.069909	
3.9525	  0.391824	  0.420973	  0.063318	  0.517572	  0.571900	  0.000000	  0.709827	  0.761459	  0.000000	  0.285274	  0.000000	  0.389209	  0.211294	  0.174614	  0.057362	  0.070131	
3.953	  0.394710	  0.424541	  0.064199	  0.518064	  0.567085	  0.000000	  0.710561	  0.761644	  0.000000	  0.286973	  0.000000	  0.390799	  0.211840	  0.175145	  0.057650	  0.070356	
3.9535	  0.397591	  0.428115	  0.065093	  0.518515	  0.562223	  0.000000	  0.711236	  0.761772	  0.000000	  0.288689	  0.000000	  0.392396	  0.212382	  0.175674	  0.057943	  0.070582	
3.954	  0.400467	  0.431695	  0.065999	  0.518925	  0.557316	  0.000000	  0.711853	  0.761846	  0.000000	  0.290423	  0.000000	  0.394000	  0.212920	  0.176201	  0.058240	  0.070810	
3.9545	  0.403337	  0.435280	  0.066919	  0.519293	  0.552365	  0.000000	  0.712410	  0.761867	  0.000000	  0.292173	  0.000000	  0.395612	  0.213454	  0.176726	  0.058542	  0.071039	
3.955	  0.406200	  0.438871	  0.067852	  0.519618	  0.547374	  0.000000	  0.712906	  0.761838	  0.000000	  0.293941	  0.000000	  0.397231	  0.213984	  0.177248	  0.058848	  0.071270	
3.9555	  0.409056	  0.442466	  0.068798	  0.519899	  0.542344	  0.000000	  0.713339	  0.761760	  0.000000	  0.295726	  0.000000	  0.398858	  0.214510	  0.177768	  0.059159	  0.071502	
3.956	  0.411904	  0.446065	  0.069758	  0.520134	  0.537277	  0.000000	  0.713709	  0.761637	  0.000000	  0.297528	  0.000000	  0.400491	  0.215031	  0.178286	  0.059473	  0.071735	
3.9565	  0.414743	  0.449668	  0.070730	  0.520323	  0.532177	  0.000000	  0.714015	  0.761469	  0.000000	  0.299347	  0.000000	  0.402133	  0.215546	  0.178801	  0.059792	  0.071969	
3.957	  0.417573	  0.453274	  0.071717	  0.520465	  0.527044	  0.000000	  0.714256	  0.761258	  0.000000	  0.301183	  0.000000	  0.403782	  0.216057	  0.179314	  0.060114	  0.072202	
3.9575	  0.420393	  0.456883	  0.072717	  0.520557	  0.521880	  0.000000	  0.714431	  0.761005	  0.000000	  0.303037	  0.000000	  0.405439	  0.216561	  0.179824	  0.060440	  0.072437	
3.958	  0.423202	  0.460493	  0.073731	  0.520601	  0.516688	  0.000000	  0.714541	  0.760711	  0.000000	  0.304909	  0.000000	  0.407104	  0.217061	  0.180331	  0.060769	  0.072671	
3.9585	  0.425998	  0.464105	  0.074759	  0.520593	  0.511470	  0.000000	  0.714585	  0.760378	  0.000000	  0.306798	  0.000000	  0.408777	  0.217555	  0.180836	  0.061102	  0.072905	
3.959	  0.428783	  0.467718	  0.075801	  0.520534	  0.506226	  0.000000	  0.714563	  0.760006	  0.000000	  0.308705	  0.000000	  0.410458	  0.218043	  0.181339	  0.061438	  0.073139	
3.9595	  0.431553	  0.471331	  0.076858	  0.520421	  0.500959	  0.000000	  0.714476	  0.759596	  0.000000	  0.310631	  0.000000	  0.412149	  0.218526	  0.181840	  0.061776	  0.073372	
3.96	  0.434308	  0.474943	  0.077930	  0.520255	  0.495670	  0.000000	  0.714322	  0.759149	  0.000000	  0.312576	  0.000000	  0.413847	  0.219004	  0.182339	  0.062118	  0.073605	
3.9605	  0.437048	  0.478555	  0.079016	  0.520033	  0.490361	  0.000000	  0.714102	  0.758664	  0.000000	  0.314539	  0.000000	  0.415554	  0.219476	  0.182836	  0.062462	  0.073837	
3.961	  0.439770	  0.482165	  0.080118	  0.519754	  0.485033	  0.000000	  0.713818	  0.758143	  0.000000	  0.316521	  0.000000	  0.417268	  0.219943	  0.183331	  0.062808	  0.074068	
